<svg width="202" height="214" viewBox="0 0 202 214" fill="none" xmlns="http://www.w3.org/2000/svg">
<path d="M101.119 60.6309L92.3452 47.9285L101.119 49.8928L109.238 47.9285L101.119 60.6309Z" fill="#18AAD1"/>
<path d="M121.242 104.574L116.94 101.512H122.219L123.979 96L125.543 101.512H130.821L126.52 104.574L128.084 109.881L123.783 106.615L119.287 109.881L121.242 104.574Z" fill="#2AD2FF"/>
<path d="M144.123 104.574L139.822 101.512H145.1L146.86 96L148.424 101.512H153.702L149.401 104.574L150.965 109.881L146.664 106.615L142.168 109.881L144.123 104.574Z" fill="#2AD2FF"/>
<path d="M98.3607 104.574L94.0596 101.512H99.3382L101.098 96L102.662 101.512H107.941L103.639 104.574L105.203 109.881L100.902 106.615L96.6012 109.881L98.3607 104.574Z" fill="#2AD2FF"/>
<path d="M75.4798 104.574L71.1787 101.512H76.4574L78.2169 96L79.781 101.512H85.0597L80.7585 104.574L82.3226 109.881L78.0214 106.615L73.7203 109.881L75.4798 104.574Z" fill="#2AD2FF"/>
<path d="M52.5987 104.574L48.2976 101.512H53.5763L55.3358 96L56.8999 101.512H62.1786L57.8774 104.574L59.4415 109.881L55.1403 106.615L50.8392 109.881L52.5987 104.574Z" fill="#2AD2FF"/>
<path d="M132.286 44.7857L100.857 90.75L69.2976 44.7857C72.5714 45.0912 79.9833 45.9119 83.4405 46.75C86.8976 47.5881 90.2936 52.1627 91.5595 54.3452L100.857 68.0952C102.996 64.7777 107.824 57.3833 110.024 54.3452C112.774 50.5476 114.476 47.9285 118.798 46.75C122.255 45.8071 129.23 45.0476 132.286 44.7857Z" fill="#2AD2FF"/>
<path d="M99.4561 46.0952C102.599 47.0119 106.784 46.5031 110.194 43.0833C113.981 39.2857 114.112 32.9259 114.123 29.4642C114.122 30.6428 113.086 33.3345 112.158 34.9642C110.445 37.9761 107.695 38.6309 106.528 38.6309C105.993 38.6309 104.552 38.369 104.694 36.5357C104.888 34.0401 107.706 32.0833 109.278 29.7261C110.849 27.369 111.624 24.3571 110.587 19.7738C109.837 16.4578 107.051 12.0476 107.051 12.1785C107.051 12.3095 106.92 14.6666 106.397 16.6309C105.873 18.5952 105.207 21.0833 102.337 24.0952C99.3287 27.2524 96.6406 29.3333 95.2656 31.1666C94.087 32.7381 92.8974 35.488 93.1704 38.6309C93.4992 42.4165 96.3132 45.1785 99.4561 46.0952Z" fill="#2AD2FF"/>
<path d="M90.3808 36.4048C90.3808 40.2024 91.1664 41.7738 91.6902 42.9524C90.2498 42.2976 88.9403 40.8571 87.8926 38.8929C86.7902 36.8259 85.9602 34.1772 86.0593 30.5119C86.2868 22.0933 89.857 17.2857 91.4284 15.7757C91.9522 15.1905 91.6109 15.9287 91.5593 16.2381C90.7401 21.1534 94.1783 21.6071 94.4403 21.6071H94.4463C94.7224 21.6072 96.0687 21.6077 97.0593 20.1667C98.2296 18.4643 97.3129 16.7619 96.5355 15.0595C96.3394 14.63 95.3569 13.0952 95.3569 10.6071C95.3569 7.59524 96.6664 5.36905 97.3212 4.19048C97.845 3.24762 98.3688 2.4881 100.202 0C100.77 0.785714 102.062 2.64524 102.69 3.79762C103.476 5.2381 104.393 6.94048 105.047 10.869C105.601 14.19 104.387 16.8895 102.821 19.381C99.9403 23.9643 97.4522 24.881 94.1783 28.2857C90.9591 31.6337 90.3808 34.1786 90.3808 36.4048Z" fill="#2AD2FF"/>
<g opacity="0.5">
<path d="M132.286 44.7857L100.857 68.0952C103.738 63.6428 109.733 54.9045 111.988 51.7262C114.869 47.6667 117.095 47.0119 122.071 46.0952C124.422 45.6623 129.536 45.0476 132.286 44.7857Z" fill="#18AAD1"/>
<path d="M69.2977 44.7857L100.857 68.0952C97.8453 63.7738 92.6072 55.9167 89.3334 51.2024C87.429 48.4601 84.75 46.7845 79.5119 46.0952C72.4423 45.165 72.0477 45.0476 69.2977 44.7857Z" fill="#18AAD1"/>
</g>
<path d="M109.75 20.9524C109.881 18.4643 108.572 15.3214 107.786 13.2262L107.786 13.2262C108.441 14.4048 109.75 16.7619 110.286 18.5952L110.29 18.6101C110.973 20.9495 111.394 22.3897 110.809 26.1905C110.286 29.5952 106.881 32.4762 106.095 33.5238C105.015 34.9643 104.493 36.1501 104.786 37.3214C105.128 38.6895 106.652 38.668 106.954 38.6395C106.976 38.6339 106.991 38.6309 107 38.6309C107.017 38.6309 106.999 38.6353 106.954 38.6395C106.656 38.7171 105.183 39.2945 103.595 39.4166C101.893 39.5476 100.558 38.9284 100.06 38.369C98.8928 37.0595 98.8928 35.619 99.2739 34.3095C99.6638 32.9696 100.452 31.6905 102.286 30.119C104.119 28.5476 104.524 28.8095 106.738 26.9762C108.781 25.2852 109.619 23.4405 109.75 20.9524Z" fill="#18AAD1"/>
<path d="M100.726 17.4489C100.726 22.5039 94.5636 21.8093 94.1785 21.6071H94.3094C96.0426 21.6071 97.4523 20.4819 97.4523 18.4599C97.4523 16.4379 95.3339 14.4159 95.3339 10.3719C95.3339 5.63095 100.202 0 100.202 0C98.6617 2.6286 97.6449 5.72129 97.4523 8.55209C97.4523 13.2027 100.726 13.6071 100.726 17.4489Z" fill="#18AAD1"/>
<path d="M9.67819 129.881V118.873H11.8702V129.881H9.67819ZM6.09419 120.569V118.633H15.4542V120.569H6.09419ZM21.5488 130.057C20.7275 130.057 19.9595 129.908 19.2448 129.609C18.5408 129.31 17.9221 128.9 17.3888 128.377C16.8661 127.844 16.4555 127.225 16.1568 126.521C15.8581 125.806 15.7088 125.044 15.7088 124.233C15.7088 123.422 15.8528 122.67 16.1408 121.977C16.4395 121.273 16.8501 120.66 17.3728 120.137C17.9061 119.604 18.5248 119.193 19.2288 118.905C19.9328 118.606 20.6955 118.457 21.5168 118.457C22.3488 118.457 23.1168 118.606 23.8208 118.905C24.5248 119.193 25.1381 119.604 25.6608 120.137C26.1941 120.66 26.6101 121.273 26.9088 121.977C27.2075 122.681 27.3568 123.438 27.3568 124.249C27.3568 125.06 27.2075 125.817 26.9088 126.521C26.6101 127.225 26.1941 127.844 25.6608 128.377C25.1381 128.9 24.5248 129.31 23.8208 129.609C23.1275 129.908 22.3701 130.057 21.5488 130.057ZM21.5168 128.025C22.2421 128.025 22.8715 127.865 23.4048 127.545C23.9381 127.225 24.3541 126.782 24.6528 126.217C24.9621 125.652 25.1168 124.99 25.1168 124.233C25.1168 123.678 25.0315 123.172 24.8608 122.713C24.6901 122.254 24.4448 121.86 24.1248 121.529C23.8048 121.188 23.4261 120.926 22.9888 120.745C22.5515 120.564 22.0608 120.473 21.5168 120.473C20.8128 120.473 20.1888 120.633 19.6448 120.953C19.1115 121.262 18.6901 121.7 18.3808 122.265C18.0821 122.83 17.9328 123.486 17.9328 124.233C17.9328 124.798 18.0181 125.316 18.1888 125.785C18.3701 126.254 18.6155 126.654 18.9248 126.985C19.2448 127.316 19.6235 127.572 20.0608 127.753C20.5088 127.934 20.9941 128.025 21.5168 128.025ZM30.6817 125.705V123.929H33.2897C33.631 123.929 33.9404 123.86 34.2177 123.721C34.495 123.582 34.7137 123.385 34.8737 123.129C35.0337 122.862 35.1137 122.542 35.1137 122.169C35.1137 121.806 35.0337 121.492 34.8737 121.225C34.7137 120.958 34.495 120.756 34.2177 120.617C33.9404 120.478 33.631 120.409 33.2897 120.409H30.6817V118.633H33.5137C34.2284 118.633 34.8684 118.777 35.4337 119.065C36.0097 119.353 36.463 119.764 36.7937 120.297C37.1244 120.82 37.2897 121.444 37.2897 122.169C37.2897 122.894 37.1244 123.524 36.7937 124.057C36.463 124.58 36.0097 124.985 35.4337 125.273C34.8684 125.561 34.2284 125.705 33.5137 125.705H30.6817ZM29.0817 129.881V118.633H31.2577V129.881H29.0817ZM47.0008 130.041C46.1795 130.041 45.4168 129.897 44.7128 129.609C44.0088 129.31 43.3901 128.9 42.8568 128.377C42.3341 127.844 41.9288 127.225 41.6408 126.521C41.3635 125.817 41.2248 125.06 41.2248 124.249C41.2248 123.438 41.3635 122.681 41.6408 121.977C41.9288 121.273 42.3341 120.66 42.8568 120.137C43.3901 119.614 44.0035 119.204 44.6968 118.905C45.4008 118.606 46.1688 118.457 47.0008 118.457C47.8968 118.457 48.6861 118.606 49.3688 118.905C50.0515 119.193 50.6541 119.593 51.1768 120.105L49.7048 121.577C49.3955 121.236 49.0168 120.969 48.5688 120.777C48.1208 120.585 47.5981 120.489 47.0008 120.489C46.4781 120.489 45.9981 120.58 45.5608 120.761C45.1341 120.932 44.7608 121.188 44.4408 121.529C44.1208 121.86 43.8755 122.26 43.7048 122.729C43.5341 123.188 43.4488 123.694 43.4488 124.249C43.4488 124.814 43.5341 125.326 43.7048 125.785C43.8755 126.244 44.1208 126.644 44.4408 126.985C44.7608 127.316 45.1341 127.572 45.5608 127.753C45.9981 127.934 46.4781 128.025 47.0008 128.025C47.6301 128.025 48.1688 127.929 48.6168 127.737C49.0755 127.545 49.4595 127.273 49.7688 126.921L51.2408 128.393C50.7181 128.916 50.1101 129.321 49.4168 129.609C48.7235 129.897 47.9181 130.041 47.0008 130.041ZM57.1856 130.041C56.3002 130.041 55.5109 129.849 54.8176 129.465C54.1349 129.07 53.5962 128.532 53.2016 127.849C52.8069 127.166 52.6096 126.393 52.6096 125.529V118.633H54.7856V125.593C54.7856 126.094 54.8869 126.526 55.0896 126.889C55.3029 127.252 55.5909 127.534 55.9536 127.737C56.3269 127.929 56.7376 128.025 57.1856 128.025C57.6442 128.025 58.0496 127.929 58.4016 127.737C58.7536 127.534 59.0309 127.252 59.2336 126.889C59.4469 126.526 59.5536 126.1 59.5536 125.609V118.633H61.7456V125.545C61.7456 126.409 61.5482 127.182 61.1536 127.865C60.7589 128.537 60.2202 129.07 59.5376 129.465C58.8656 129.849 58.0816 130.041 57.1856 130.041ZM67.0332 130.041C66.1265 130.041 65.3479 129.886 64.6972 129.577C64.0572 129.268 63.4759 128.804 62.9532 128.185L64.3932 126.745C64.7239 127.182 65.1079 127.524 65.5452 127.769C65.9825 128.004 66.5159 128.121 67.1452 128.121C67.7105 128.121 68.1585 128.009 68.4892 127.785C68.8305 127.561 69.0012 127.252 69.0012 126.857C69.0012 126.516 68.9052 126.238 68.7132 126.025C68.5212 125.812 68.2652 125.63 67.9452 125.481C67.6359 125.332 67.2892 125.198 66.9052 125.081C66.5319 124.953 66.1532 124.809 65.7692 124.649C65.3959 124.489 65.0492 124.292 64.7292 124.057C64.4199 123.812 64.1692 123.502 63.9772 123.129C63.7852 122.745 63.6892 122.265 63.6892 121.689C63.6892 121.006 63.8545 120.425 64.1852 119.945C64.5159 119.465 64.9692 119.097 65.5452 118.841C66.1212 118.585 66.7719 118.457 67.4972 118.457C68.2652 118.457 68.9585 118.601 69.5772 118.889C70.1959 119.177 70.7025 119.55 71.0972 120.009L69.6572 121.449C69.3265 121.086 68.9852 120.82 68.6332 120.649C68.2919 120.478 67.9025 120.393 67.4652 120.393C66.9639 120.393 66.5692 120.489 66.2812 120.681C65.9932 120.873 65.8492 121.15 65.8492 121.513C65.8492 121.822 65.9452 122.073 66.1372 122.265C66.3292 122.457 66.5799 122.622 66.8892 122.761C67.2092 122.9 67.5559 123.033 67.9292 123.161C68.3132 123.289 68.6919 123.433 69.0652 123.593C69.4492 123.753 69.7959 123.961 70.1052 124.217C70.4252 124.473 70.6812 124.804 70.8732 125.209C71.0652 125.604 71.1612 126.094 71.1612 126.681C71.1612 127.726 70.7932 128.548 70.0572 129.145C69.3212 129.742 68.3132 130.041 67.0332 130.041ZM75.2094 129.881V118.873H77.4014V129.881H75.2094ZM71.6254 120.569V118.633H80.9854V120.569H71.6254ZM87.0801 130.057C86.2587 130.057 85.4907 129.908 84.7761 129.609C84.0721 129.31 83.4534 128.9 82.9201 128.377C82.3974 127.844 81.9867 127.225 81.6881 126.521C81.3894 125.806 81.2401 125.044 81.2401 124.233C81.2401 123.422 81.3841 122.67 81.6721 121.977C81.9707 121.273 82.3814 120.66 82.9041 120.137C83.4374 119.604 84.0561 119.193 84.7601 118.905C85.4641 118.606 86.2267 118.457 87.0481 118.457C87.8801 118.457 88.6481 118.606 89.3521 118.905C90.0561 119.193 90.6694 119.604 91.1921 120.137C91.7254 120.66 92.1414 121.273 92.4401 121.977C92.7387 122.681 92.8881 123.438 92.8881 124.249C92.8881 125.06 92.7387 125.817 92.4401 126.521C92.1414 127.225 91.7254 127.844 91.1921 128.377C90.6694 128.9 90.0561 129.31 89.3521 129.609C88.6587 129.908 87.9014 130.057 87.0801 130.057ZM87.0481 128.025C87.7734 128.025 88.4027 127.865 88.9361 127.545C89.4694 127.225 89.8854 126.782 90.1841 126.217C90.4934 125.652 90.6481 124.99 90.6481 124.233C90.6481 123.678 90.5627 123.172 90.3921 122.713C90.2214 122.254 89.9761 121.86 89.6561 121.529C89.3361 121.188 88.9574 120.926 88.5201 120.745C88.0827 120.564 87.5921 120.473 87.0481 120.473C86.3441 120.473 85.7201 120.633 85.1761 120.953C84.6427 121.262 84.2214 121.7 83.9121 122.265C83.6134 122.83 83.4641 123.486 83.4641 124.233C83.4641 124.798 83.5494 125.316 83.7201 125.785C83.9014 126.254 84.1467 126.654 84.4561 126.985C84.7761 127.316 85.1547 127.572 85.5921 127.753C86.0401 127.934 86.5254 128.025 87.0481 128.025ZM94.6129 129.881V118.633H96.1489L100.709 125.929H99.8289L104.373 118.633H105.909V129.881H103.749V122.361L104.165 122.489L100.997 127.577H99.5249L96.3569 122.489L96.7889 122.361V129.881H94.6129ZM114.596 130.041C113.689 130.041 112.91 129.886 112.26 129.577C111.62 129.268 111.038 128.804 110.516 128.185L111.956 126.745C112.286 127.182 112.67 127.524 113.108 127.769C113.545 128.004 114.078 128.121 114.708 128.121C115.273 128.121 115.721 128.009 116.052 127.785C116.393 127.561 116.564 127.252 116.564 126.857C116.564 126.516 116.468 126.238 116.276 126.025C116.084 125.812 115.828 125.63 115.508 125.481C115.198 125.332 114.852 125.198 114.468 125.081C114.094 124.953 113.716 124.809 113.332 124.649C112.958 124.489 112.612 124.292 112.292 124.057C111.982 123.812 111.732 123.502 111.54 123.129C111.348 122.745 111.252 122.265 111.252 121.689C111.252 121.006 111.417 120.425 111.748 119.945C112.078 119.465 112.532 119.097 113.108 118.841C113.684 118.585 114.334 118.457 115.06 118.457C115.828 118.457 116.521 118.601 117.14 118.889C117.758 119.177 118.265 119.55 118.66 120.009L117.22 121.449C116.889 121.086 116.548 120.82 116.196 120.649C115.854 120.478 115.465 120.393 115.028 120.393C114.526 120.393 114.132 120.489 113.844 120.681C113.556 120.873 113.412 121.15 113.412 121.513C113.412 121.822 113.508 122.073 113.7 122.265C113.892 122.457 114.142 122.622 114.452 122.761C114.772 122.9 115.118 123.033 115.492 123.161C115.876 123.289 116.254 123.433 116.628 123.593C117.012 123.753 117.358 123.961 117.668 124.217C117.988 124.473 118.244 124.804 118.436 125.209C118.628 125.604 118.724 126.094 118.724 126.681C118.724 127.726 118.356 128.548 117.62 129.145C116.884 129.742 115.876 130.041 114.596 130.041ZM125.799 130.057C124.977 130.057 124.209 129.908 123.495 129.609C122.791 129.31 122.172 128.9 121.639 128.377C121.116 127.844 120.705 127.225 120.407 126.521C120.108 125.806 119.959 125.044 119.959 124.233C119.959 123.422 120.103 122.67 120.391 121.977C120.689 121.273 121.1 120.66 121.623 120.137C122.156 119.604 122.775 119.193 123.479 118.905C124.183 118.606 124.945 118.457 125.767 118.457C126.599 118.457 127.367 118.606 128.071 118.905C128.775 119.193 129.388 119.604 129.911 120.137C130.444 120.66 130.86 121.273 131.159 121.977C131.457 122.681 131.607 123.438 131.607 124.249C131.607 125.06 131.457 125.817 131.159 126.521C130.86 127.225 130.444 127.844 129.911 128.377C129.388 128.9 128.775 129.31 128.071 129.609C127.377 129.908 126.62 130.057 125.799 130.057ZM125.767 128.025C126.492 128.025 127.121 127.865 127.655 127.545C128.188 127.225 128.604 126.782 128.903 126.217C129.212 125.652 129.367 124.99 129.367 124.233C129.367 123.678 129.281 123.172 129.111 122.713C128.94 122.254 128.695 121.86 128.375 121.529C128.055 121.188 127.676 120.926 127.239 120.745C126.801 120.564 126.311 120.473 125.767 120.473C125.063 120.473 124.439 120.633 123.895 120.953C123.361 121.262 122.94 121.7 122.631 122.265C122.332 122.83 122.183 123.486 122.183 124.233C122.183 124.798 122.268 125.316 122.439 125.785C122.62 126.254 122.865 126.654 123.175 126.985C123.495 127.316 123.873 127.572 124.311 127.753C124.759 127.934 125.244 128.025 125.767 128.025ZM133.332 129.881V118.633H135.508V129.881H133.332ZM134.932 125.273V123.337H140.596V125.273H134.932ZM134.932 120.553V118.633H140.868V120.553H134.932ZM145.006 129.881V118.873H147.198V129.881H145.006ZM141.422 120.569V118.633H150.782V120.569H141.422ZM154.727 129.881L151.079 118.633H153.223L155.927 127.289H155.207L157.863 118.633H159.479L162.135 127.289H161.399L164.119 118.633H166.263L162.599 129.881H160.983L158.311 121.241H159.015L156.359 129.881H154.727ZM165.625 129.881L170.153 118.633H171.929L176.441 129.881H174.121L170.633 120.649H171.433L167.897 129.881H165.625ZM168.025 127.785V125.961H174.073V127.785H168.025ZM179.369 125.177V123.481H181.977C182.511 123.481 182.921 123.348 183.209 123.081C183.508 122.804 183.657 122.425 183.657 121.945C183.657 121.508 183.508 121.145 183.209 120.857C182.921 120.558 182.511 120.409 181.977 120.409H179.369V118.633H182.169C182.895 118.633 183.529 118.777 184.073 119.065C184.628 119.342 185.055 119.726 185.353 120.217C185.663 120.708 185.817 121.273 185.817 121.913C185.817 122.574 185.663 123.15 185.353 123.641C185.055 124.121 184.628 124.5 184.073 124.777C183.519 125.044 182.873 125.177 182.137 125.177H179.369ZM177.769 129.881V118.633H179.945V129.881H177.769ZM183.913 129.881L180.201 125.017L182.201 124.393L186.553 129.881H183.913ZM187.785 129.881V118.633H189.961V129.881H187.785ZM189.385 129.881V127.961H195.609V129.881H189.385ZM189.385 125.065V123.209H195.049V125.065H189.385ZM189.385 120.553V118.633H195.529V120.553H189.385ZM44.7103 147.881V145.945H47.5743C48.2996 145.945 48.9343 145.796 49.4783 145.497C50.0223 145.188 50.4436 144.756 50.7423 144.201C51.0516 143.646 51.2063 142.99 51.2063 142.233C51.2063 141.497 51.0516 140.857 50.7423 140.313C50.433 139.758 50.0063 139.332 49.4623 139.033C48.9183 138.724 48.289 138.569 47.5743 138.569H44.6623V136.633H47.6063C48.4383 136.633 49.2063 136.772 49.9103 137.049C50.625 137.326 51.2436 137.721 51.7663 138.233C52.2996 138.734 52.7103 139.326 52.9983 140.009C53.297 140.692 53.4463 141.438 53.4463 142.249C53.4463 143.06 53.297 143.812 52.9983 144.505C52.7103 145.188 52.305 145.785 51.7823 146.297C51.2596 146.798 50.641 147.188 49.9263 147.465C49.2223 147.742 48.4596 147.881 47.6383 147.881H44.7103ZM43.2223 147.881V136.633H45.3983V147.881H43.2223ZM55.1754 147.881V136.633H57.3514V147.881H55.1754ZM56.7754 147.881V145.961H62.9994V147.881H56.7754ZM56.7754 143.065V141.209H62.4394V143.065H56.7754ZM56.7754 138.553V136.633H62.9194V138.553H56.7754ZM68.1817 147.881L63.7497 136.633H66.1017L69.5257 145.737H68.6137L72.0697 136.633H74.3897L69.9097 147.881H68.1817ZM75.8629 147.881V136.633H78.0389V147.881H75.8629ZM77.4629 147.881V145.961H83.6869V147.881H77.4629ZM77.4629 143.065V141.209H83.1269V143.065H77.4629ZM77.4629 138.553V136.633H83.6069V138.553H77.4629ZM85.4879 147.881V136.633H87.6639V147.881H85.4879ZM87.0879 147.881V145.945H92.8159V147.881H87.0879ZM98.8926 148.057C98.0712 148.057 97.3032 147.908 96.5886 147.609C95.8846 147.31 95.2659 146.9 94.7326 146.377C94.2099 145.844 93.7992 145.225 93.5006 144.521C93.2019 143.806 93.0526 143.044 93.0526 142.233C93.0526 141.422 93.1966 140.67 93.4846 139.977C93.7832 139.273 94.1939 138.66 94.7166 138.137C95.2499 137.604 95.8686 137.193 96.5726 136.905C97.2766 136.606 98.0392 136.457 98.8606 136.457C99.6926 136.457 100.461 136.606 101.165 136.905C101.869 137.193 102.482 137.604 103.005 138.137C103.538 138.66 103.954 139.273 104.253 139.977C104.551 140.681 104.701 141.438 104.701 142.249C104.701 143.06 104.551 143.817 104.253 144.521C103.954 145.225 103.538 145.844 103.005 146.377C102.482 146.9 101.869 147.31 101.165 147.609C100.471 147.908 99.7139 148.057 98.8926 148.057ZM98.8606 146.025C99.5859 146.025 100.215 145.865 100.749 145.545C101.282 145.225 101.698 144.782 101.997 144.217C102.306 143.652 102.461 142.99 102.461 142.233C102.461 141.678 102.375 141.172 102.205 140.713C102.034 140.254 101.789 139.86 101.469 139.529C101.149 139.188 100.77 138.926 100.333 138.745C99.8952 138.564 99.4046 138.473 98.8606 138.473C98.1566 138.473 97.5326 138.633 96.9886 138.953C96.4552 139.262 96.0339 139.7 95.7246 140.265C95.4259 140.83 95.2766 141.486 95.2766 142.233C95.2766 142.798 95.3619 143.316 95.5326 143.785C95.7139 144.254 95.9592 144.654 96.2686 144.985C96.5886 145.316 96.9672 145.572 97.4046 145.753C97.8526 145.934 98.3379 146.025 98.8606 146.025ZM108.025 143.705V141.929H110.633C110.975 141.929 111.284 141.86 111.561 141.721C111.839 141.582 112.057 141.385 112.217 141.129C112.377 140.862 112.457 140.542 112.457 140.169C112.457 139.806 112.377 139.492 112.217 139.225C112.057 138.958 111.839 138.756 111.561 138.617C111.284 138.478 110.975 138.409 110.633 138.409H108.025V136.633H110.857C111.572 136.633 112.212 136.777 112.777 137.065C113.353 137.353 113.807 137.764 114.137 138.297C114.468 138.82 114.633 139.444 114.633 140.169C114.633 140.894 114.468 141.524 114.137 142.057C113.807 142.58 113.353 142.985 112.777 143.273C112.212 143.561 111.572 143.705 110.857 143.705H108.025ZM106.425 147.881V136.633H108.601V147.881H106.425ZM116.175 147.881V136.633H117.711L122.271 143.929H121.391L125.935 136.633H127.471V147.881H125.311V140.361L125.727 140.489L122.559 145.577H121.087L117.919 140.489L118.351 140.361V147.881H116.175ZM129.769 147.881V136.633H131.945V147.881H129.769ZM131.369 147.881V145.961H137.593V147.881H131.369ZM131.369 143.065V141.209H137.033V143.065H131.369ZM131.369 138.553V136.633H137.513V138.553H131.369ZM139.394 147.881V136.633H140.914L141.57 138.809V147.881H139.394ZM147.17 147.881L140.498 139.241L140.914 136.633L147.586 145.273L147.17 147.881ZM147.17 147.881L146.546 145.769V136.633H148.738V147.881H147.17ZM153.803 147.881V136.873H155.995V147.881H153.803ZM150.219 138.569V136.633H159.579V138.569H150.219ZM67.5633 166.041C66.742 166.041 65.9793 165.897 65.2753 165.609C64.5713 165.31 63.9526 164.9 63.4193 164.377C62.8966 163.844 62.4913 163.225 62.2033 162.521C61.926 161.817 61.7873 161.06 61.7873 160.249C61.7873 159.438 61.926 158.681 62.2033 157.977C62.4913 157.273 62.8966 156.66 63.4193 156.137C63.9526 155.614 64.566 155.204 65.2593 154.905C65.9633 154.606 66.7313 154.457 67.5633 154.457C68.4593 154.457 69.2486 154.606 69.9313 154.905C70.614 155.193 71.2166 155.593 71.7393 156.105L70.2673 157.577C69.958 157.236 69.5793 156.969 69.1313 156.777C68.6833 156.585 68.1606 156.489 67.5633 156.489C67.0406 156.489 66.5606 156.58 66.1233 156.761C65.6966 156.932 65.3233 157.188 65.0033 157.529C64.6833 157.86 64.438 158.26 64.2673 158.729C64.0966 159.188 64.0113 159.694 64.0113 160.249C64.0113 160.814 64.0966 161.326 64.2673 161.785C64.438 162.244 64.6833 162.644 65.0033 162.985C65.3233 163.316 65.6966 163.572 66.1233 163.753C66.5606 163.934 67.0406 164.025 67.5633 164.025C68.1926 164.025 68.7313 163.929 69.1793 163.737C69.638 163.545 70.022 163.273 70.3313 162.921L71.8033 164.393C71.2806 164.916 70.6726 165.321 69.9793 165.609C69.286 165.897 68.4806 166.041 67.5633 166.041ZM78.1269 166.057C77.3056 166.057 76.5376 165.908 75.8229 165.609C75.1189 165.31 74.5003 164.9 73.9669 164.377C73.4443 163.844 73.0336 163.225 72.7349 162.521C72.4363 161.806 72.2869 161.044 72.2869 160.233C72.2869 159.422 72.4309 158.67 72.7189 157.977C73.0176 157.273 73.4283 156.66 73.9509 156.137C74.4843 155.604 75.1029 155.193 75.8069 154.905C76.5109 154.606 77.2736 154.457 78.0949 154.457C78.9269 154.457 79.6949 154.606 80.3989 154.905C81.1029 155.193 81.7163 155.604 82.2389 156.137C82.7723 156.66 83.1883 157.273 83.4869 157.977C83.7856 158.681 83.9349 159.438 83.9349 160.249C83.9349 161.06 83.7856 161.817 83.4869 162.521C83.1883 163.225 82.7723 163.844 82.2389 164.377C81.7163 164.9 81.1029 165.31 80.3989 165.609C79.7056 165.908 78.9483 166.057 78.1269 166.057ZM78.0949 164.025C78.8203 164.025 79.4496 163.865 79.9829 163.545C80.5163 163.225 80.9323 162.782 81.2309 162.217C81.5403 161.652 81.6949 160.99 81.6949 160.233C81.6949 159.678 81.6096 159.172 81.4389 158.713C81.2683 158.254 81.0229 157.86 80.7029 157.529C80.3829 157.188 80.0043 156.926 79.5669 156.745C79.1296 156.564 78.6389 156.473 78.0949 156.473C77.3909 156.473 76.7669 156.633 76.2229 156.953C75.6896 157.262 75.2683 157.7 74.9589 158.265C74.6603 158.83 74.5109 159.486 74.5109 160.233C74.5109 160.798 74.5963 161.316 74.7669 161.785C74.9483 162.254 75.1936 162.654 75.5029 162.985C75.8229 163.316 76.2016 163.572 76.6389 163.753C77.0869 163.934 77.5723 164.025 78.0949 164.025ZM85.6598 165.881V154.633H87.1958L91.7558 161.929H90.8758L95.4198 154.633H96.9558V165.881H94.7958V158.361L95.2118 158.489L92.0438 163.577H90.5718L87.4038 158.489L87.8358 158.361V165.881H85.6598ZM100.854 161.705V159.929H103.462C103.803 159.929 104.112 159.86 104.39 159.721C104.667 159.582 104.886 159.385 105.046 159.129C105.206 158.862 105.286 158.542 105.286 158.169C105.286 157.806 105.206 157.492 105.046 157.225C104.886 156.958 104.667 156.756 104.39 156.617C104.112 156.478 103.803 156.409 103.462 156.409H100.854V154.633H103.686C104.4 154.633 105.04 154.777 105.606 155.065C106.182 155.353 106.635 155.764 106.966 156.297C107.296 156.82 107.462 157.444 107.462 158.169C107.462 158.894 107.296 159.524 106.966 160.057C106.635 160.58 106.182 160.985 105.606 161.273C105.04 161.561 104.4 161.705 103.686 161.705H100.854ZM99.2536 165.881V154.633H101.43V165.881H99.2536ZM107.328 165.881L111.856 154.633H113.632L118.144 165.881H115.824L112.336 156.649H113.136L109.6 165.881H107.328ZM109.728 163.785V161.961H115.776V163.785H109.728ZM119.472 165.881V154.633H120.992L121.648 156.809V165.881H119.472ZM127.248 165.881L120.576 157.241L120.992 154.633L127.664 163.273L127.248 165.881ZM127.248 165.881L126.624 163.769V154.633H128.816V165.881H127.248ZM134.585 161.545L130.233 154.633H132.745L136.121 160.169H134.681L138.057 154.633H140.537L136.137 161.545H134.585ZM134.297 165.881V160.377H136.489V165.881H134.297Z" fill="black"/>
<path d="M157.449 186.881L168.551 186.881L164.399 176.381L168.551 165.881H152.949L157.449 170.881V186.881Z" fill="#0460B5"/>
<path d="M44.5508 186.881L33.4492 186.881L37.601 176.381L33.4492 165.881H49.0508L44.5508 170.881V186.881Z" fill="#0460B5"/>
<path d="M155.449 171.881H46.4492V192.881H155.449V171.881Z" fill="#0460B5"/>
<path d="M61.0856 179.426C61.631 179.699 62.0856 180.154 62.3583 180.608C62.631 181.154 62.8129 181.79 62.8129 182.336C62.8129 182.972 62.631 183.517 62.3583 184.063C62.0856 184.608 61.631 184.972 61.0856 185.245C60.5401 185.517 59.9038 185.699 59.2674 185.699H56.4492V178.881H59.2674C59.9038 178.972 60.5401 179.063 61.0856 179.426ZM60.4492 184.335C60.8129 184.154 61.0856 183.881 61.2674 183.517C61.631 182.79 61.631 181.881 61.2674 181.154C61.0856 180.79 60.8129 180.517 60.4492 180.335C60.0856 180.154 59.7219 180.063 59.2674 180.063H57.7219V184.608H59.2674C59.631 184.608 60.0856 184.517 60.4492 184.335Z" fill="white"/>
<path d="M63.9041 178.972H68.9041V180.063H65.2677V181.79H68.5404V182.881H65.2677V184.608H69.0859V185.699H63.9041V178.972Z" fill="white"/>
<path d="M73.6311 180.245C73.3584 180.154 72.9947 180.063 72.6311 180.063C72.3584 180.063 72.0856 180.154 71.9038 180.245C71.722 180.335 71.6311 180.517 71.6311 180.699C71.6311 180.881 71.722 181.063 71.8129 181.154C71.9038 181.245 72.0857 181.426 72.2675 181.426C72.5402 181.517 72.8129 181.608 73.0856 181.699C73.4493 181.79 73.8129 181.972 74.1766 182.063C74.4493 182.245 74.722 182.426 74.9038 182.699C75.0857 182.972 75.2675 183.335 75.1766 183.79C75.1766 184.154 75.0857 184.608 74.8129 184.881C74.5402 185.154 74.2675 185.426 73.9038 185.608C73.4493 185.79 72.9947 185.881 72.5402 185.881C71.9947 185.881 71.4493 185.79 70.9947 185.608C70.5402 185.426 70.0856 185.154 69.6311 184.79L70.1766 183.699C70.5402 183.972 70.9038 184.245 71.3584 184.426C71.722 184.608 72.1766 184.699 72.5402 184.699C72.8129 184.699 73.1766 184.608 73.3584 184.517C73.722 184.335 73.722 183.881 73.5402 183.517L73.4493 183.426C73.2675 183.335 73.1766 183.154 72.9947 183.154C72.8129 183.063 72.5402 182.972 72.1766 182.881C71.8129 182.79 71.4493 182.608 71.0857 182.517C70.8129 182.426 70.5402 182.154 70.3584 181.972C70.1766 181.699 69.9947 181.335 70.0856 180.972C70.0856 180.608 70.1766 180.245 70.3584 179.972C70.6311 179.699 70.9038 179.426 71.2675 179.245C71.722 179.063 72.1766 178.972 72.6311 178.972C73.0856 178.972 73.5402 179.063 73.9038 179.154C74.2675 179.245 74.722 179.426 75.0857 179.699L74.5402 180.79C74.3584 180.517 73.9947 180.335 73.6311 180.245Z" fill="white"/>
<path d="M76.5403 178.972H77.813V185.79H76.5403V178.972Z" fill="white"/>
<path d="M84.0859 182.336H85.1768V184.972C84.8131 185.245 84.3586 185.426 83.9041 185.608C83.4495 185.79 82.995 185.881 82.4495 185.881C81.8131 185.881 81.1768 185.699 80.6313 185.426C80.0859 185.154 79.6313 184.699 79.3586 184.154C78.995 183.608 78.9041 182.972 78.9041 182.336C78.9041 181.699 79.0859 181.063 79.3586 180.608C79.7222 180.063 80.1768 179.608 80.7222 179.335C81.2677 179.063 81.9041 178.881 82.5404 178.881C82.995 178.881 83.5404 178.972 83.995 179.154C84.4495 179.335 84.9041 179.517 85.1768 179.881L84.4495 180.881C84.1768 180.608 83.9041 180.426 83.5404 180.335C83.1768 180.245 82.9041 180.154 82.5404 180.154C82.0859 180.154 81.7222 180.245 81.3586 180.426C80.2677 181.063 79.9041 182.517 80.5404 183.608C80.995 184.335 81.7222 184.79 82.5404 184.79C82.8131 184.79 82.995 184.79 83.2677 184.699C83.5404 184.608 83.8131 184.517 83.995 184.335L84.0859 182.336Z" fill="white"/>
<path d="M91.5405 178.972H92.8132V185.79H91.6314L88.086 181.063V185.79H86.8132V178.972H88.086L91.6314 183.699L91.5405 178.972Z" fill="white"/>
<path d="M98.7222 185.79L97.5404 183.79H95.7222V185.79H94.4495V178.972H97.2676C97.9949 178.881 98.7222 179.154 99.3586 179.517C99.8131 179.972 100.086 180.608 100.086 181.245C100.086 181.699 99.9949 182.154 99.7222 182.608C99.4495 182.972 99.0858 183.245 98.7222 183.426L100.268 185.699L98.7222 185.79ZM95.7222 182.608H97.2676C97.7222 182.608 98.0858 182.517 98.4495 182.245C98.7222 181.972 98.8131 181.699 98.8131 181.335C98.8131 180.972 98.7222 180.608 98.4495 180.426C98.0858 180.245 97.7222 180.063 97.3586 180.154H95.7222V182.608Z" fill="white"/>
<path d="M103.086 184.245C103.449 184.517 103.904 184.699 104.268 184.699C104.722 184.699 105.177 184.517 105.449 184.245C105.722 183.881 105.904 183.426 105.904 182.972V178.972H107.177V182.972C107.177 183.517 107.086 184.063 106.813 184.517C106.54 184.972 106.177 185.335 105.813 185.517C105.358 185.79 104.813 185.881 104.268 185.881C103.722 185.881 103.177 185.79 102.631 185.517C102.177 185.335 101.813 184.972 101.631 184.517C101.358 184.063 101.268 183.517 101.268 182.972V178.972H102.54V182.972C102.631 183.426 102.813 183.881 103.086 184.245Z" fill="white"/>
<path d="M112.086 180.245C111.813 180.154 111.45 180.063 111.086 180.063C110.813 180.063 110.54 180.154 110.359 180.245C110.177 180.335 110.086 180.517 110.086 180.699C110.086 180.881 110.177 181.063 110.268 181.154C110.359 181.245 110.54 181.426 110.722 181.426C110.995 181.517 111.268 181.608 111.54 181.699C111.904 181.79 112.268 181.972 112.631 182.063C112.904 182.245 113.177 182.426 113.359 182.699C113.54 182.972 113.722 183.335 113.631 183.79C113.631 184.154 113.54 184.608 113.268 184.881C112.995 185.154 112.722 185.426 112.359 185.608C111.904 185.79 111.45 185.881 110.995 185.881C110.45 185.881 109.904 185.79 109.45 185.608C108.995 185.426 108.54 185.154 108.086 184.79L108.631 183.699C108.995 183.972 109.359 184.245 109.813 184.426C110.177 184.608 110.631 184.699 110.995 184.699C111.268 184.699 111.631 184.608 111.813 184.517C112.177 184.335 112.177 183.881 111.995 183.517L111.904 183.426C111.722 183.335 111.631 183.154 111.45 183.154C111.268 183.063 110.995 182.972 110.631 182.881C110.268 182.79 109.904 182.608 109.54 182.517C109.268 182.426 108.995 182.154 108.813 181.972C108.631 181.699 108.45 181.335 108.54 180.972C108.54 180.608 108.631 180.245 108.813 179.972C109.086 179.699 109.359 179.426 109.722 179.245C110.177 179.063 110.631 178.972 111.086 178.972C111.54 178.972 111.995 179.063 112.359 179.154C112.722 179.245 113.177 179.426 113.54 179.699L112.995 180.79C112.813 180.517 112.45 180.335 112.086 180.245Z" fill="white"/>
<path d="M114.995 178.972H116.268V181.881H119.631V178.972H120.904V185.79H119.631V183.063H116.268V185.79H114.995V178.972Z" fill="white"/>
<path d="M123.359 184.608C123.45 184.699 123.541 184.881 123.541 185.154C123.541 185.335 123.45 185.517 123.359 185.699C123.268 185.79 123.086 185.881 122.904 185.881C122.722 185.881 122.541 185.79 122.45 185.699C122.359 185.517 122.268 185.335 122.268 185.154C122.268 184.972 122.359 184.79 122.45 184.608C122.541 184.517 122.722 184.426 122.904 184.426C123.086 184.426 123.268 184.517 123.359 184.608Z" fill="white"/>
<path d="M126.995 181.608C126.631 181.608 126.267 181.79 125.995 182.063C125.722 182.335 125.631 182.79 125.631 183.154C125.631 183.608 125.722 183.972 125.995 184.245C126.267 184.517 126.631 184.699 126.995 184.699C127.54 184.699 128.085 184.517 128.358 184.063L129.176 184.699C128.904 185.063 128.631 185.335 128.267 185.517C127.813 185.699 127.358 185.79 126.904 185.79C126.449 185.79 125.995 185.699 125.54 185.426C125.176 185.245 124.813 184.881 124.631 184.517C124.176 183.699 124.176 182.608 124.631 181.79C124.813 181.426 125.176 181.063 125.54 180.881C125.995 180.699 126.449 180.517 126.904 180.517C127.358 180.517 127.813 180.608 128.176 180.79C128.54 180.972 128.813 181.154 129.085 181.517L128.358 182.245C128.085 181.881 127.54 181.608 126.995 181.608Z" fill="white"/>
<path d="M133.813 180.881C134.177 181.063 134.541 181.426 134.813 181.79C135.086 182.245 135.177 182.699 135.177 183.154C135.177 183.608 135.086 184.154 134.813 184.517C134.541 184.881 134.268 185.245 133.813 185.426C133.359 185.608 132.904 185.79 132.359 185.79C131.813 185.79 131.359 185.699 130.904 185.426C130.541 185.245 130.177 184.881 129.904 184.517C129.631 184.063 129.541 183.608 129.541 183.154C129.541 182.699 129.631 182.154 129.904 181.79C130.177 181.426 130.45 181.063 130.904 180.881C131.359 180.608 131.813 180.517 132.359 180.517C132.904 180.517 133.359 180.608 133.813 180.881ZM131.359 182.063C130.813 182.699 130.813 183.699 131.359 184.335C131.631 184.608 131.995 184.79 132.45 184.79C132.813 184.79 133.268 184.608 133.541 184.335C134.086 183.699 134.086 182.699 133.541 182.063C133.268 181.79 132.904 181.608 132.45 181.608C131.995 181.608 131.631 181.699 131.359 182.063Z" fill="white"/>
<path d="M144.45 181.063C144.813 181.426 144.995 181.972 144.995 182.517V185.79H143.722V182.881C143.722 182.517 143.631 182.245 143.45 181.972C143.268 181.79 142.904 181.608 142.631 181.608C142.268 181.608 141.904 181.79 141.631 182.063C141.359 182.335 141.268 182.699 141.268 183.154V185.699H139.995V182.881C139.995 182.517 139.904 182.245 139.722 181.972C139.54 181.79 139.177 181.608 138.904 181.608C138.54 181.608 138.177 181.79 137.904 182.063C137.631 182.335 137.54 182.79 137.631 183.154V185.699H136.359V180.517H137.631V181.517C138.268 180.517 139.631 180.245 140.631 180.79C140.904 180.972 141.177 181.335 141.268 181.699C141.54 180.881 142.359 180.426 143.177 180.426C143.631 180.426 144.086 180.699 144.45 181.063Z" fill="white"/>
</svg>
